<?xml version="1.0" encoding="UTF-8" standalone="no"?>
<svg
   xmlns:dc="http://purl.org/dc/elements/1.1/"
   xmlns:cc="http://creativecommons.org/ns#"
   xmlns:rdf="http://www.w3.org/1999/02/22-rdf-syntax-ns#"
   xmlns:svg="http://www.w3.org/2000/svg"
   xmlns="http://www.w3.org/2000/svg"
   viewBox="0 0 862.125 227.78751"
   height="227.78751"
   width="862.125"
   xml:space="preserve"
   version="1.1"
   id="svg3355"><metadata
     id="metadata3361"><rdf:RDF><cc:Work
         rdf:about=""><dc:format>image/svg+xml</dc:format><dc:type
           rdf:resource="http://purl.org/dc/dcmitype/StillImage" /><dc:title></dc:title></cc:Work></rdf:RDF></metadata><defs
     id="defs3359" /><g
     transform="matrix(1.25,0,0,-1.25,0,227.7875)"
     id="g3363"><g
       transform="scale(0.1,0.1)"
       id="g3365"><path
         id="path3367"
         style="fill:none;stroke:#1f3764;stroke-width:71.28720093;stroke-linecap:butt;stroke-linejoin:miter;stroke-miterlimit:4;stroke-dasharray:none;stroke-opacity:1"
         d="m 4090.1,1140.61 c 0,-351.899 -285.26,-637.122 -637.11,-637.122 -351.88,0 -637.14,285.223 -637.14,637.122 0,351.87 285.26,637.13 637.14,637.13 351.85,0 637.11,-285.26 637.11,-637.13 z" /><path
         id="path3369"
         style="fill:none;stroke:#1f3764;stroke-width:71.28720093;stroke-linecap:butt;stroke-linejoin:miter;stroke-miterlimit:4;stroke-dasharray:none;stroke-opacity:1"
         d="m 5471.28,1149.51 c 0,-351.869 -285.25,-637.139 -637.13,-637.139 -351.88,0 -637.14,285.27 -637.14,637.139 0,351.88 285.26,637.12 637.14,637.12 351.88,0 637.13,-285.24 637.13,-637.12 z" /><path
         id="path3371"
         style="fill:none;stroke:#1f3764;stroke-width:71.28720093;stroke-linecap:butt;stroke-linejoin:miter;stroke-miterlimit:4;stroke-dasharray:none;stroke-opacity:1"
         d="m 2699.9,1145.07 c -0.05,0 -22.86,22.61 -50.68,50.24 l -586.34,582.43 c -351.88,0 -637.14,-285.26 -637.14,-637.13 0,-351.899 285.26,-637.122 637.14,-637.122 1.49,0 1.49,0 1.49,0 1.63,0.09 2.97,-31.906 2.97,-71.117 l 0,-280.871 c 0,-39.211 32.08,-71.2891 71.29,-71.2891 l 490.09,0 c 39.21,0 71.29,32.0781 71.29,71.2891 l 0,922.28 c 0,39.21 -0.05,71.29 -0.11,71.29 z" /><path
         id="path3373"
         style="fill:none;stroke:#1f3764;stroke-width:71.28720093;stroke-linecap:butt;stroke-linejoin:miter;stroke-miterlimit:4;stroke-dasharray:none;stroke-opacity:1"
         d="m 1148.06,1572.77 -265.88,0 120.84,120.81 c -96.399,58.67 -209.165,93.05 -330.239,93.05 -351.875,0 -637.1365,-285.24 -637.1365,-637.12 0,-194.717 87.5975,-368.748 225.2735,-485.658 l 193.539,0 -78.086,-78.114 c 88.602,-46.609 189.313,-73.367 296.41,-73.367 351.879,0 637.139,285.27 637.139,637.139 0,162.69 -61.51,310.67 -161.86,423.26 z" /><path
         id="path3375"
         style="fill:none;stroke:#1f3764;stroke-width:71.28720093;stroke-linecap:butt;stroke-linejoin:miter;stroke-miterlimit:4;stroke-dasharray:none;stroke-opacity:1"
         d="m 5587.25,1100.5 c 0.07,0 22.89,22.61 50.7,50.24 l 586.31,582.43 c 351.87,0 637.14,-285.26 637.14,-637.13 0,-351.899 -285.27,-637.118 -637.14,-637.118 -1.5,0 -1.5,0 -1.5,0 -1.62,0.117 -2.95,-31.863 -2.95,-71.07 l 0,-280.922 c 0,-39.2112 -32.08,-71.2894 -71.28,-71.2894 l -490.12,0 c -39.21,0 -71.29,32.0782 -71.29,71.2894 l 0,922.28 c 0,39.21 0.06,71.29 0.13,71.29 z" /></g></g></svg>